<?xml version="1.0" standalone="no"?>
<!DOCTYPE svg PUBLIC "-//W3C//DTD SVG 20010904//EN"
 "http://www.w3.org/TR/2001/REC-SVG-20010904/DTD/svg10.dtd">
<svg version="1.0" xmlns="http://www.w3.org/2000/svg"
 width="1954.000000pt" height="1954.000000pt" viewBox="0 0 1954.000000 1954.000000"
 preserveAspectRatio="xMidYMid meet">
<metadata>
Created by potrace 1.14, written by Peter Selinger 2001-2017
</metadata>
<g transform="translate(0.000000,1954.000000) scale(0.100000,-0.100000)"
fill="#000000" stroke="none">
<path d="M7335 15569 c-244 -34 -464 -111 -660 -232 -27 -17 -369 -254 -758
-526 -390 -273 -733 -513 -763 -533 -62 -44 -112 -78 -289 -203 -71 -49 -178
-125 -239 -167 -61 -43 -131 -92 -156 -110 -25 -17 -70 -49 -100 -69 -151
-105 -605 -423 -706 -494 -46 -33 -105 -75 -131 -93 -27 -19 -109 -76 -183
-128 -74 -52 -164 -115 -200 -140 -160 -111 -437 -304 -523 -366 -29 -20 -65
-47 -82 -58 -16 -12 -147 -103 -290 -203 -143 -100 -271 -190 -285 -199 -14
-9 -63 -44 -110 -77 -47 -33 -128 -90 -180 -126 -52 -36 -133 -93 -180 -126
-47 -33 -107 -75 -135 -94 -103 -72 -204 -143 -320 -225 -66 -46 -156 -109
-200 -139 -185 -126 -317 -240 -436 -376 -99 -115 -217 -313 -284 -480 -39
-97 -91 -283 -99 -355 -3 -25 -8 -56 -11 -70 -10 -41 -13 -309 -4 -385 9 -82
17 -141 25 -175 3 -14 10 -44 15 -68 14 -69 74 -240 110 -317 148 -313 360
-552 679 -765 45 -30 87 -60 93 -66 7 -5 59 -43 117 -82 124 -85 271 -188 285
-199 6 -5 33 -24 60 -43 58 -39 120 -83 231 -161 43 -30 124 -87 179 -125 55
-39 123 -86 150 -105 28 -20 187 -131 355 -249 168 -117 338 -236 378 -264 40
-28 103 -72 140 -98 37 -26 72 -51 77 -55 6 -4 46 -32 90 -62 44 -30 82 -57
85 -61 3 -3 44 -32 93 -65 48 -33 136 -93 195 -133 238 -163 519 -269 791
-299 85 -10 342 -9 406 0 405 61 724 212 993 471 151 145 264 297 357 484 50
99 127 307 139 377 3 17 12 68 21 115 27 139 27 387 0 570 -38 262 -175 570
-354 795 -129 164 -236 258 -499 440 -96 66 -195 136 -222 155 -27 19 -87 62
-134 94 l-85 59 29 21 c16 12 51 36 77 54 26 18 94 65 150 105 57 40 132 92
168 117 64 44 194 135 350 246 65 46 389 272 975 682 36 25 306 214 600 421
294 206 565 395 601 420 71 49 295 206 592 414 451 316 559 416 726 676 80
124 190 382 215 503 3 12 7 32 9 43 3 11 8 40 12 65 4 25 9 54 11 65 23 111
22 416 -1 520 -3 11 -7 32 -10 48 -12 65 -17 86 -35 152 -145 521 -540 957
-1040 1150 -91 36 -246 81 -301 89 -19 3 -65 10 -104 17 -112 18 -335 17 -470
-2z"/>
<path d="M11858 15585 c-2 -1 -32 -5 -68 -8 -561 -49 -1097 -410 -1363 -919
-73 -140 -139 -321 -161 -443 -3 -16 -8 -41 -11 -55 -27 -135 -38 -387 -22
-490 3 -19 9 -57 12 -85 37 -281 174 -594 364 -830 159 -198 377 -371 596
-476 249 -119 492 -174 770 -173 143 0 212 7 370 38 144 28 420 138 515 206
16 11 31 20 35 20 19 0 213 156 296 239 153 154 239 270 327 446 92 182 144
348 177 560 11 68 13 346 4 425 -29 241 -109 481 -229 684 -195 331 -493 591
-835 728 -88 36 -201 74 -240 82 -11 3 -54 11 -95 20 -41 8 -102 18 -135 21
-64 7 -302 15 -307 10z"/>
<path d="M15128 13334 c-2 -1 -43 -4 -93 -8 -114 -7 -134 -11 -279 -47 -648
-160 -1143 -679 -1280 -1341 -24 -118 -30 -193 -29 -368 0 -150 5 -196 38
-373 21 -111 118 -353 197 -489 109 -189 343 -441 508 -547 14 -8 75 -51 135
-94 61 -42 117 -82 125 -87 8 -6 46 -33 85 -60 38 -28 72 -50 75 -50 3 0 18
-11 34 -25 16 -14 49 -38 72 -52 l42 -27 -48 -35 c-26 -20 -56 -42 -67 -49
-114 -79 -220 -153 -228 -160 -5 -4 -50 -36 -100 -70 -127 -87 -208 -144 -236
-164 -21 -15 -184 -130 -339 -238 -132 -92 -187 -130 -210 -147 -14 -10 -320
-224 -680 -476 -360 -252 -664 -465 -675 -473 -11 -8 -110 -77 -220 -154 -110
-77 -208 -145 -218 -152 -89 -64 -362 -256 -402 -283 -27 -19 -88 -61 -135
-94 -47 -33 -125 -88 -175 -122 -295 -204 -485 -420 -626 -709 -47 -97 -111
-273 -123 -340 -2 -14 -9 -45 -14 -70 -32 -142 -47 -420 -28 -535 4 -22 11
-69 17 -105 52 -339 231 -683 488 -941 91 -91 249 -219 270 -219 5 0 11 -4 13
-8 5 -11 90 -60 193 -110 156 -76 376 -141 542 -159 132 -15 453 -7 505 12 7
3 27 7 43 9 96 12 282 75 421 142 136 65 164 84 696 458 101 71 226 158 278
194 52 36 136 95 187 131 51 36 138 98 194 136 56 39 107 75 113 80 6 6 31 24
56 40 67 44 244 168 250 175 3 3 43 31 90 63 105 72 171 118 375 261 88 62
189 133 225 158 36 24 234 163 440 308 206 145 410 287 454 317 43 30 108 76
145 102 36 26 95 67 131 92 36 25 135 95 220 154 85 60 184 129 220 154 182
127 495 346 609 426 70 50 197 139 282 198 456 320 595 418 609 427 8 5 76 53
150 105 74 52 142 99 150 105 241 163 431 318 510 419 109 138 135 173 173
236 54 92 112 210 138 282 11 32 24 67 29 78 10 26 38 123 44 155 3 14 10 50
16 80 36 181 33 478 -6 655 -8 39 -17 81 -20 94 -8 39 -64 202 -87 251 -157
346 -349 571 -677 794 -47 31 -96 66 -110 76 -14 10 -158 111 -320 224 -162
114 -304 213 -315 221 -11 7 -155 108 -320 224 -263 184 -377 264 -450 315
-78 56 -561 394 -580 406 -12 8 -96 67 -186 130 -90 63 -173 122 -185 130
-179 121 -237 156 -347 208 -37 18 -74 32 -80 32 -7 0 -17 4 -23 9 -21 19
-232 76 -349 95 -85 13 -319 28 -327 20z"/>
<path d="M7487 7424 c-1 -1 -37 -5 -80 -9 -84 -7 -81 -7 -201 -31 -207 -42
-425 -136 -615 -265 -257 -174 -456 -407 -590 -690 -51 -107 -112 -278 -125
-349 -2 -14 -7 -36 -10 -50 -48 -204 -41 -537 14 -760 90 -360 295 -691 565
-915 26 -22 53 -45 59 -51 33 -31 228 -150 303 -185 49 -22 102 -47 118 -54
69 -32 270 -88 360 -101 28 -3 59 -9 70 -11 39 -9 351 -11 410 -2 33 5 79 11
103 15 34 5 146 30 207 47 34 10 94 31 120 42 17 7 64 27 105 45 216 94 448
273 623 480 42 50 155 218 178 265 9 17 20 39 27 50 57 102 139 348 158 472 3
21 7 49 10 63 28 158 20 465 -18 605 -5 22 -12 50 -14 61 -7 38 -45 157 -71
224 -45 114 -154 320 -175 328 -4 2 -8 8 -8 14 0 30 -195 248 -320 358 -37 33
-234 170 -244 170 -4 0 -23 10 -44 23 -147 92 -456 185 -667 202 -74 6 -244
12 -248 9z"/>
</g>
</svg>
