<?xml version="1.0" standalone="no"?>
<!DOCTYPE svg PUBLIC "-//W3C//DTD SVG 20010904//EN"
 "http://www.w3.org/TR/2001/REC-SVG-20010904/DTD/svg10.dtd">
<svg version="1.0" xmlns="http://www.w3.org/2000/svg"
 width="2084.000000pt" height="2084.000000pt" viewBox="0 0 2084.000000 2084.000000"
 preserveAspectRatio="xMidYMid meet">
<metadata>
Created by potrace 1.14, written by Peter Selinger 2001-2017
</metadata>
<g transform="translate(0.000000,2084.000000) scale(0.100000,-0.100000)"
fill="#000000" stroke="none">
<path d="M10381 20729 c-23 -63 -46 -123 -51 -134 -5 -11 -28 -69 -51 -130
-22 -60 -47 -123 -54 -140 -7 -16 -52 -133 -100 -260 -48 -126 -93 -243 -100
-260 -7 -16 -74 -192 -150 -390 -75 -198 -143 -373 -150 -390 -7 -16 -29 -75
-50 -130 -20 -55 -41 -109 -46 -120 -9 -21 -48 -121 -106 -275 -19 -52 -40
-106 -46 -120 -5 -14 -11 -29 -13 -35 -4 -14 -523 -1365 -534 -1390 -12 -27
-62 -158 -164 -425 -48 -124 -90 -234 -95 -245 -5 -11 -14 -36 -21 -55 -7 -19
-18 -48 -25 -65 -7 -16 -85 -221 -174 -455 -89 -234 -168 -438 -175 -455 -8
-16 -19 -46 -26 -65 -7 -19 -18 -48 -25 -65 -7 -16 -74 -192 -149 -390 -76
-198 -141 -369 -146 -380 -5 -11 -27 -67 -49 -125 -23 -58 -112 -291 -200
-519 l-159 -414 -204 -87 c-111 -48 -295 -127 -408 -175 -113 -48 -218 -93
-235 -100 -16 -8 -106 -46 -200 -86 -93 -39 -188 -79 -210 -89 -22 -10 -191
-82 -375 -160 -184 -77 -355 -150 -380 -162 -25 -11 -58 -26 -75 -34 -16 -7
-53 -22 -81 -33 -28 -11 -71 -29 -95 -40 -24 -11 -271 -116 -549 -234 -278
-118 -523 -223 -545 -233 -22 -9 -42 -18 -45 -19 -3 -1 -18 -7 -35 -15 -97
-42 -115 -50 -120 -50 -2 0 -28 -11 -57 -24 -45 -20 -149 -65 -285 -122 l-32
-14 -128 153 c-219 263 -408 523 -547 752 -37 61 -71 117 -76 125 -35 54 -195
394 -229 485 -46 125 -96 315 -107 408 -10 84 -10 289 0 357 46 310 256 573
583 733 133 65 341 131 510 162 15 2 38 7 49 9 36 7 86 14 149 21 33 4 74 9
90 11 164 23 676 22 923 -1 26 -2 79 -7 117 -10 68 -6 95 -9 183 -20 23 -3 63
-7 90 -10 26 -3 58 -8 72 -10 14 -2 45 -7 70 -10 62 -8 96 -14 285 -46 66 -11
154 -27 195 -36 41 -8 86 -17 100 -19 83 -15 509 -113 672 -155 106 -27 200
-51 208 -53 8 -2 59 -16 113 -31 54 -15 100 -25 102 -23 12 13 133 353 128
359 -11 9 -380 128 -708 228 -202 61 -573 165 -735 206 -198 49 -422 104 -445
109 -16 3 -48 10 -70 16 -103 26 -590 125 -673 136 -26 3 -49 8 -52 9 -3 2
-26 6 -50 10 -25 3 -67 10 -95 15 -27 5 -68 12 -90 15 -23 3 -50 7 -60 9 -11
2 -45 7 -75 11 -30 4 -62 9 -70 10 -8 2 -40 6 -71 9 -31 4 -65 8 -75 10 -11 2
-53 7 -94 11 -41 4 -82 8 -90 10 -8 1 -51 6 -95 10 -44 3 -96 8 -115 10 -48 5
-219 16 -310 20 -117 6 -506 6 -600 1 -211 -12 -362 -26 -445 -42 -10 -2 -37
-6 -60 -10 -22 -3 -83 -14 -135 -25 -52 -11 -108 -22 -125 -25 -71 -14 -360
-116 -451 -160 -402 -195 -637 -475 -719 -859 -33 -153 -27 -423 14 -620 96
-466 384 -1031 826 -1625 92 -123 346 -444 364 -460 4 -3 31 -34 61 -70 30
-36 57 -67 60 -70 3 -3 23 -25 44 -50 66 -76 236 -259 343 -370 l102 -105 -47
-22 c-26 -12 -229 -99 -452 -193 -223 -95 -433 -185 -468 -201 -35 -16 -65
-29 -68 -29 -4 0 -188 -77 -249 -105 -16 -8 -75 -32 -130 -55 -55 -23 -122
-52 -150 -64 -27 -12 -61 -27 -75 -33 l-25 -11 25 -10 c33 -13 566 -239 605
-257 17 -7 184 -79 373 -159 787 -336 1029 -439 1067 -456 22 -10 96 -41 165
-70 69 -29 143 -60 165 -70 22 -10 128 -55 235 -101 107 -45 213 -90 235 -99
22 -10 148 -64 280 -120 132 -56 254 -108 270 -115 30 -13 279 -120 1290 -550
281 -119 533 -227 560 -239 28 -13 66 -29 85 -36 62 -25 127 -63 348 -206 119
-78 309 -199 422 -269 113 -70 228 -142 255 -159 28 -17 148 -90 268 -161
l217 -130 46 -120 c64 -165 131 -338 159 -410 13 -33 35 -91 49 -130 15 -38
30 -79 35 -90 6 -11 46 -117 91 -235 45 -118 104 -271 131 -340 26 -69 93
-244 149 -390 55 -146 105 -274 110 -285 6 -11 43 -108 83 -215 86 -225 492
-1284 542 -1410 18 -47 59 -152 90 -235 31 -82 63 -165 72 -183 8 -18 23 -56
33 -85 10 -29 39 -106 65 -172 26 -66 50 -131 55 -145 5 -14 26 -70 48 -125
21 -55 98 -255 171 -445 73 -190 164 -426 203 -525 38 -99 105 -274 149 -390
44 -115 84 -219 89 -230 10 -23 156 -401 176 -457 30 -82 217 -564 224 -578 7
-13 10 -12 16 5 13 39 316 831 329 860 7 17 17 44 23 60 10 29 50 132 117 305
18 47 52 135 75 195 23 61 57 148 75 195 19 47 82 211 141 365 59 154 137 359
174 455 37 96 97 254 134 350 70 184 91 235 111 285 15 35 69 178 71 185 0 3
6 19 13 35 6 17 44 113 82 215 39 102 74 194 79 205 5 11 32 81 60 155 105
274 132 345 141 365 8 20 42 109 117 305 64 167 134 345 137 348 3 3 121 -41
490 -183 33 -13 119 -44 190 -70 72 -26 139 -51 150 -55 44 -19 367 -131 600
-208 746 -250 1718 -515 2255 -616 14 -3 83 -17 154 -31 129 -26 420 -76 551
-95 39 -5 79 -12 90 -14 11 -2 54 -7 95 -11 41 -4 77 -8 80 -10 3 -1 37 -6 75
-9 39 -4 81 -9 95 -11 14 -2 57 -6 95 -10 39 -3 88 -8 110 -10 390 -42 1044
-34 1355 16 36 6 79 13 95 15 28 4 42 6 105 19 14 2 36 7 50 9 14 3 45 10 70
17 25 6 55 13 68 15 33 7 254 80 299 99 304 132 500 278 648 483 68 95 148
272 170 379 25 115 32 203 29 343 -1 85 -5 169 -9 185 -3 17 -13 68 -21 115
-59 323 -259 794 -489 1150 -12 19 -51 80 -86 135 -35 55 -66 102 -69 105 -3
3 -25 34 -49 70 -47 68 -211 291 -220 300 -3 3 -28 34 -55 70 -90 118 -382
466 -450 536 -6 6 -51 55 -101 110 -100 110 -689 702 -803 807 -41 37 -80 67
-87 67 -7 0 -49 -13 -92 -29 -43 -16 -145 -53 -226 -81 l-148 -53 28 -30 c15
-16 44 -46 63 -66 19 -20 73 -79 120 -131 47 -52 87 -97 90 -100 3 -3 32 -36
65 -75 33 -38 63 -72 66 -75 14 -13 222 -274 275 -345 32 -44 62 -82 65 -85
11 -8 233 -342 274 -411 89 -152 141 -250 210 -404 54 -121 129 -331 140 -394
3 -19 8 -37 10 -41 4 -6 9 -34 30 -173 9 -55 10 -213 2 -284 -29 -245 -146
-458 -341 -617 -104 -84 -216 -148 -362 -206 -162 -65 -433 -129 -614 -145
-25 -3 -63 -7 -85 -9 -208 -27 -680 -22 -1000 9 -100 10 -252 26 -275 30 -14
2 -45 6 -70 10 -25 3 -56 8 -70 10 -14 3 -44 7 -68 10 -24 3 -53 7 -65 10 -12
2 -40 7 -62 10 -127 18 -410 72 -650 125 -169 38 -150 33 -260 60 -88 21 -106
25 -142 34 -118 29 -374 100 -674 186 -132 38 -449 140 -639 205 -107 36 -199
67 -205 68 -5 2 -23 8 -40 14 -16 6 -127 46 -245 89 -118 42 -220 78 -226 81
-7 3 3 40 28 106 22 56 50 129 63 162 47 128 440 1147 490 1275 30 74 57 147
60 161 6 24 32 38 248 130 133 56 265 113 294 126 28 13 54 23 57 23 2 0 34
14 69 30 36 17 68 30 71 30 3 0 29 11 58 24 29 13 127 55 218 94 91 38 183 78
205 88 22 9 42 18 45 19 6 2 -16 -7 325 138 149 63 299 127 335 142 36 15 83
35 105 45 22 10 270 116 550 235 518 220 536 228 615 263 25 11 101 43 170 72
68 29 143 60 165 70 22 10 132 58 245 105 113 48 223 96 244 106 22 11 44 19
49 19 4 0 32 11 60 24 29 13 176 76 327 140 151 65 289 124 305 131 17 7 185
79 375 160 190 81 359 153 375 160 17 8 122 53 235 101 113 47 223 94 245 104
22 10 94 40 160 68 66 27 145 61 175 74 30 14 134 58 230 98 96 41 178 76 183
80 4 4 -50 30 -120 60 -71 29 -148 62 -173 73 -62 27 -89 38 -205 87 -55 23
-118 50 -140 60 -22 10 -69 30 -105 45 -36 14 -83 34 -105 44 -22 11 -69 31
-105 46 -36 15 -83 35 -105 45 -22 10 -141 61 -265 113 -374 158 -425 179
-434 188 -6 5 -16 9 -23 9 -7 0 -36 11 -65 24 -29 13 -82 36 -118 51 -36 15
-83 35 -105 45 -22 10 -206 89 -410 175 -203 87 -462 197 -575 245 -113 48
-329 140 -480 204 -151 65 -290 124 -307 132 -68 29 -101 44 -233 99 -74 31
-159 68 -188 81 -29 13 -55 24 -57 24 -2 0 -29 11 -59 25 -30 14 -66 29 -80
35 -25 9 -1217 517 -1291 550 -22 10 -96 41 -165 70 -69 29 -143 60 -165 70
-22 10 -175 75 -340 145 -165 70 -302 129 -304 131 -4 3 -150 378 -185 474
-33 88 -255 668 -271 705 -7 17 -39 98 -70 180 -51 135 -207 541 -440 1145
-46 118 -127 330 -180 470 -53 140 -106 274 -116 297 -10 24 -19 45 -19 48 0
6 -295 777 -310 810 -5 11 -106 274 -225 585 -119 311 -232 603 -250 650 -18
47 -79 204 -134 350 -56 146 -106 274 -111 285 -4 11 -23 58 -40 105 -17 47
-35 94 -40 105 -5 11 -43 110 -85 220 -41 110 -80 209 -84 220 -5 11 -80 205
-166 430 -86 226 -162 423 -168 439 -13 28 -14 26 -56 -85z"/>
</g>
</svg>
